<svg width="33" height="33" viewBox="0 0 33 33" fill="none" xmlns="http://www.w3.org/2000/svg">
<circle cx="16.2794" cy="16.2794" r="16.2794" fill="#05182D"/>
<path d="M22.3368 11.1411H11.7921C11.283 11.1411 10.8729 10.7276 10.8729 10.2219C10.8729 9.71616 11.2864 9.30273 11.7921 9.30273H22.3368C22.8459 9.30273 23.2559 9.71616 23.2559 10.2219C23.2559 10.7276 22.8425 11.1411 22.3368 11.1411Z" fill="#F3A005"/>
<path d="M22.3368 21.6857C21.8277 21.6857 21.4177 21.2723 21.4177 20.7666V10.2219C21.4177 9.71275 21.8311 9.30273 22.3368 9.30273C22.8426 9.30273 23.256 9.71616 23.256 10.2219V20.7666C23.256 21.2757 22.8426 21.6857 22.3368 21.6857Z" fill="#F3A005"/>
<path d="M10.2244 23.2544C9.98866 23.2544 9.75292 23.1655 9.57182 22.9844C9.21304 22.6256 9.21304 22.0413 9.57182 21.6825L21.2338 10.0205C21.5926 9.66177 22.1769 9.66177 22.5357 10.0205C22.8945 10.3793 22.8945 10.9636 22.5357 11.3223L10.8737 22.9844C10.6926 23.1655 10.4568 23.2544 10.221 23.2544H10.2244Z" fill="#F3A005"/>
</svg>
