<svg width="24" height="24" viewBox="0 0 24 24" fill="none" xmlns="http://www.w3.org/2000/svg">
<path d="M14.6698 22.0283V22.1629H9.32983V22.0268C9.32983 21.758 9.3828 21.4917 9.4857 21.2433C9.5886 20.9949 9.73942 20.7693 9.92956 20.5792C10.1197 20.3891 10.3454 20.2383 10.5938 20.1354C10.8422 20.0326 11.1085 19.9796 11.3773 19.9797H12.6223C12.8913 19.9796 13.1577 20.0326 13.4062 20.1356C13.6547 20.2385 13.8805 20.3894 14.0706 20.5797C14.2608 20.7699 14.4116 20.9958 14.5144 21.2444C14.6172 21.4929 14.67 21.7593 14.6698 22.0283ZM6.13521 19.9812H4.89021C4.62135 19.9811 4.35511 20.0341 4.10669 20.1369C3.85828 20.2398 3.63257 20.3906 3.44243 20.5807C3.2523 20.7708 3.10148 20.9964 2.99858 21.2448C2.89567 21.4932 2.84271 21.7595 2.84271 22.0283V22.1629H8.18271V22.0268C8.18221 21.4841 7.96627 20.9638 7.58235 20.5802C7.19842 20.1967 6.67792 19.9812 6.13521 19.9812ZM7.41808 17.2527C7.41801 16.8759 7.30621 16.5076 7.09682 16.1943C6.88742 15.881 6.58984 15.6368 6.24169 15.4927C5.89355 15.3485 5.51047 15.3108 5.1409 15.3843C4.77133 15.4579 4.43186 15.6393 4.16541 15.9058C3.89896 16.1722 3.7175 16.5117 3.64397 16.8813C3.57043 17.2508 3.60814 17.6339 3.7523 17.9821C3.89647 18.3302 4.14063 18.6278 4.45391 18.8372C4.76719 19.0466 5.13552 19.1584 5.51234 19.1584C5.76262 19.1585 6.01045 19.1092 6.24169 19.0135C6.47293 18.9177 6.68304 18.7774 6.86001 18.6004C7.03699 18.4234 7.17736 18.2133 7.27312 17.9821C7.36887 17.7508 7.41813 17.503 7.41808 17.2527ZM13.9056 17.2527C13.9055 16.8759 13.7937 16.5076 13.5843 16.1943C13.3749 15.881 13.0773 15.6368 12.7292 15.4927C12.381 15.3485 11.998 15.3108 11.6284 15.3843C11.2588 15.4579 10.9194 15.6393 10.6529 15.9058C10.3865 16.1722 10.205 16.5117 10.1315 16.8813C10.0579 17.2508 10.0956 17.6339 10.2398 17.9821C10.384 18.3302 10.6281 18.6278 10.9414 18.8372C11.2547 19.0466 11.623 19.1584 11.9998 19.1584C12.2501 19.1584 12.4979 19.1092 12.7291 19.0134C12.9603 18.9176 13.1703 18.7772 13.3473 18.6002C13.5242 18.4233 13.6645 18.2132 13.7603 17.982C13.856 17.7508 13.9056 17.5029 13.9056 17.2527ZM22.1361 2.40045V13.6167C22.1361 13.7659 22.0768 13.909 21.9713 14.0144C21.8658 14.1199 21.7228 14.1792 21.5736 14.1792H17.2386L17.2573 13.0542L17.3023 11.498C17.31 11.2279 17.2203 10.9642 17.0495 10.7549C16.8788 10.5455 16.6384 10.4047 16.3723 10.358L8.29108 8.9142C8.23382 8.90399 8.17497 8.90724 8.11917 8.92369C8.06338 8.94014 8.01218 8.96935 7.96962 9.009C7.92706 9.04865 7.89431 9.09765 7.87395 9.15214C7.8536 9.20663 7.8462 9.26511 7.85233 9.32295C7.8668 9.60919 7.97198 9.8834 8.15267 10.1059C8.33335 10.3284 8.58015 10.4876 8.85733 10.5605C9.50608 10.7255 12.4048 11.8842 12.4048 11.8842V14.1792H2.42609C2.2769 14.1792 2.13383 14.1199 2.02834 14.0144C1.92285 13.909 1.86359 13.7659 1.86359 13.6167V2.40045C1.86359 2.25127 1.92285 2.10819 2.02834 2.0027C2.13383 1.89721 2.2769 1.83795 2.42609 1.83795H21.5736C21.7228 1.83795 21.8658 1.89721 21.9713 2.0027C22.0768 2.10819 22.1361 2.25127 22.1361 2.40045ZM16.7886 7.36395C16.7886 6.99756 16.6799 6.6394 16.4764 6.33476C16.2728 6.03012 15.9835 5.79268 15.645 5.65246C15.3065 5.51225 14.934 5.47557 14.5747 5.54705C14.2153 5.61853 13.8852 5.79496 13.6262 6.05404C13.3671 6.31311 13.1907 6.6432 13.1192 7.00255C13.0477 7.3619 13.0844 7.73437 13.2246 8.07287C13.3648 8.41137 13.6022 8.70069 13.9069 8.90425C14.2115 9.1078 14.5697 9.21645 14.9361 9.21645C15.4273 9.21605 15.8982 9.02075 16.2456 8.67343C16.5929 8.3261 16.7882 7.85514 16.7886 7.36395ZM19.1095 19.9812H17.8645C17.3215 19.9812 16.8008 20.1969 16.4168 20.5808C16.0328 20.9647 15.8171 21.4854 15.817 22.0283V22.1629H21.157V22.0268C21.1566 21.4841 20.9407 20.9637 20.5567 20.5801C20.1728 20.1965 19.6522 19.9811 19.1095 19.9812ZM20.3923 17.2527C20.3923 16.8759 20.2804 16.5075 20.071 16.1942C19.8616 15.8809 19.564 15.6367 19.2158 15.4926C18.8676 15.3484 18.4845 15.3108 18.1149 15.3844C17.7453 15.458 17.4058 15.6395 17.1394 15.906C16.873 16.1726 16.6916 16.5121 16.6181 16.8817C16.5447 17.2513 16.5825 17.6344 16.7268 17.9826C16.871 18.3307 17.1153 18.6282 17.4287 18.8375C17.7421 19.0468 18.1105 19.1585 18.4873 19.1584C18.7375 19.1584 18.9853 19.1091 19.2165 19.0133C19.4476 18.9175 19.6576 18.7771 19.8345 18.6001C20.0114 18.4231 20.1517 18.2131 20.2474 17.9819C20.3431 17.7507 20.3924 17.5029 20.3923 17.2527Z" fill="white"/>
</svg>
