<svg width="26" height="26" viewBox="0 0 26 26" fill="none" xmlns="http://www.w3.org/2000/svg">
<path d="M19.1542 2.39328H6.3709C5.73918 2.39391 5.13352 2.64514 4.68683 3.09183C4.24014 3.53852 3.98891 4.14418 3.98828 4.77589V22.3348C3.98836 22.4807 4.02842 22.6237 4.10411 22.7483C4.1798 22.873 4.28822 22.9745 4.41757 23.0419C4.54693 23.1092 4.69227 23.1398 4.8378 23.1304C4.98333 23.1209 5.12348 23.0717 5.243 22.9881L12.7626 17.7251L20.2821 22.9897C20.4163 23.083 20.5758 23.1328 20.7392 23.1325C20.8674 23.1322 20.9938 23.1013 21.1077 23.0423C21.2371 22.9749 21.3455 22.8733 21.4212 22.7486C21.4969 22.6238 21.5369 22.4807 21.5368 22.3348V4.77589C21.5362 4.14418 21.285 3.53852 20.8383 3.09183C20.3916 2.64514 19.7859 2.39391 19.1542 2.39328ZM14.3579 7.17925H11.1672C10.9557 7.17925 10.7528 7.09521 10.6032 6.94562C10.4536 6.79603 10.3696 6.59314 10.3696 6.38159C10.3696 6.17003 10.4536 5.96714 10.6032 5.81755C10.7528 5.66796 10.9557 5.58392 11.1672 5.58392H14.3579C14.5694 5.58392 14.7723 5.66796 14.9219 5.81755C15.0715 5.96714 15.1555 6.17003 15.1555 6.38159C15.1555 6.59314 15.0715 6.79603 14.9219 6.94562C14.7723 7.09521 14.5694 7.17925 14.3579 7.17925Z" fill="white"/>
</svg>
