<svg width="24" height="24" viewBox="0 0 24 24" fill="none" xmlns="http://www.w3.org/2000/svg">
<path d="M21.2906 6.75019L14.4506 1.78019C13.7382 1.26351 12.8807 0.985275 12.0006 0.985275C11.1206 0.985275 10.263 1.26351 9.55061 1.78019L2.71061 6.75019C2.18211 7.13927 1.75214 7.64677 1.45518 8.23201C1.15822 8.81725 1.00253 9.46393 1.00061 10.1202V18.8402C1.00022 19.3866 1.10755 19.9277 1.31647 20.4326C1.52539 20.9375 1.8318 21.3963 2.21817 21.7826C2.60454 22.169 3.06329 22.4754 3.56818 22.6843C4.07307 22.8933 4.6142 23.0006 5.16061 23.0002H18.8406C19.387 23.0006 19.9281 22.8933 20.433 22.6843C20.9379 22.4754 21.3967 22.169 21.7831 21.7826C22.1694 21.3963 22.4758 20.9375 22.6848 20.4326C22.8937 19.9277 23.001 19.3866 23.0006 18.8402V10.1202C22.9987 9.46393 22.843 8.81725 22.546 8.23201C22.2491 7.64677 21.8191 7.13927 21.2906 6.75019ZM16.6006 17.8002C15.27 18.7872 13.6573 19.3201 12.0006 19.3201C10.3439 19.3201 8.73117 18.7872 7.40061 17.8002C7.29555 17.7214 7.20704 17.6227 7.14014 17.5097C7.07323 17.3967 7.02923 17.2716 7.01066 17.1416C6.97315 16.8791 7.04148 16.6124 7.20061 16.4002C7.35974 16.188 7.59664 16.0478 7.85919 16.0102C8.12174 15.9727 8.38844 16.0411 8.60061 16.2002C9.58364 16.9308 10.7758 17.3253 12.0006 17.3253C13.2254 17.3253 14.4176 16.9308 15.4006 16.2002C15.6128 16.0411 15.8795 15.9727 16.142 16.0102C16.4046 16.0478 16.6415 16.188 16.8006 16.4002C16.9597 16.6124 17.0281 16.8791 16.9906 17.1416C16.9531 17.4042 16.8128 17.6411 16.6006 17.8002Z" fill="white"/>
</svg>
