<svg width="24" height="24" viewBox="0 0 24 24" fill="none" xmlns="http://www.w3.org/2000/svg">
<path d="M19.5 21.75C19.5 21.9489 19.421 22.1397 19.2803 22.2803C19.1397 22.421 18.9489 22.5 18.75 22.5H5.25C5.05109 22.5 4.86032 22.421 4.71967 22.2803C4.57902 22.1397 4.5 21.9489 4.5 21.75C4.5 21.5511 4.57902 21.3603 4.71967 21.2197C4.86032 21.079 5.05109 21 5.25 21H11.25V19.464C9.34599 19.3311 7.56017 18.4922 6.24227 17.1116C4.92437 15.731 4.16933 13.9081 4.125 12C4.125 11.8011 4.20402 11.6103 4.34467 11.4697C4.48532 11.329 4.67609 11.25 4.875 11.25C5.07391 11.25 5.26468 11.329 5.40533 11.4697C5.54598 11.6103 5.625 11.8011 5.625 12C5.67811 13.6399 6.37873 15.1919 7.57351 16.3164C8.76829 17.4409 10.3599 18.0463 12 18C13.6401 18.0463 15.2317 17.4409 16.4265 16.3164C17.6213 15.1919 18.3219 13.6399 18.375 12C18.375 11.8011 18.454 11.6103 18.5947 11.4697C18.7353 11.329 18.9261 11.25 19.125 11.25C19.3239 11.25 19.5147 11.329 19.6553 11.4697C19.796 11.6103 19.875 11.8011 19.875 12C19.8307 13.9081 19.0756 15.731 17.7577 17.1116C16.4398 18.4922 14.654 19.3311 12.75 19.464V21H18.75C18.9489 21 19.1397 21.079 19.2803 21.2197C19.421 21.3603 19.5 21.5511 19.5 21.75ZM10.5 12C10.5 12.1989 10.421 12.3897 10.2803 12.5303C10.1397 12.671 9.94891 12.75 9.75 12.75H7.18875C7.36611 13.8988 7.94867 14.9462 8.83111 15.7029C9.71354 16.4595 10.8376 16.8755 12 16.8755C13.1624 16.8755 14.2865 16.4595 15.1689 15.7029C16.0513 14.9462 16.6339 13.8988 16.8113 12.75H14.25C14.0511 12.75 13.8603 12.671 13.7197 12.5303C13.579 12.3897 13.5 12.1989 13.5 12C13.5 11.8011 13.579 11.6103 13.7197 11.4697C13.8603 11.329 14.0511 11.25 14.25 11.25H16.875V9.75H14.25C14.0511 9.75 13.8603 9.67098 13.7197 9.53033C13.579 9.38968 13.5 9.19891 13.5 9C13.5 8.80109 13.579 8.61032 13.7197 8.46967C13.8603 8.32902 14.0511 8.25 14.25 8.25H16.875V6.75H14.25C14.0511 6.75 13.8603 6.67098 13.7197 6.53033C13.579 6.38968 13.5 6.19891 13.5 6C13.5 5.80109 13.579 5.61032 13.7197 5.46967C13.8603 5.32902 14.0511 5.25 14.25 5.25H16.8113C16.6339 4.10119 16.0513 3.05377 15.1689 2.29712C14.2865 1.54046 13.1624 1.12453 12 1.12453C10.8376 1.12453 9.71354 1.54046 8.83111 2.29712C7.94867 3.05377 7.36611 4.10119 7.18875 5.25H9.75C9.94891 5.25 10.1397 5.32902 10.2803 5.46967C10.421 5.61032 10.5 5.80109 10.5 6C10.5 6.19891 10.421 6.38968 10.2803 6.53033C10.1397 6.67098 9.94891 6.75 9.75 6.75H7.125V8.25H9.75C9.94891 8.25 10.1397 8.32902 10.2803 8.46967C10.421 8.61032 10.5 8.80109 10.5 9C10.5 9.19891 10.421 9.38968 10.2803 9.53033C10.1397 9.67098 9.94891 9.75 9.75 9.75H7.125V11.25H9.75C9.94891 11.25 10.1397 11.329 10.2803 11.4697C10.421 11.6103 10.5 11.8011 10.5 12Z" fill="white"/>
</svg>
