<svg width="24" height="24" viewBox="0 0 24 24" fill="none" xmlns="http://www.w3.org/2000/svg">
<path d="M12.9073 2.22093C12.4436 2.83832 12.1194 3.53966 11.9468 4.28207L18.6119 10.9472C19.3541 10.7744 20.0552 10.4496 20.6724 9.9861L12.9073 2.22093Z" fill="white"/>
<path d="M11.5235 6.09375L1.87222 16.4663L3.69168 18.2858C2.83654 19.2878 2.68583 19.9523 2.55074 20.5493C2.41129 21.1654 2.29082 21.6974 1.10596 22.8823L2.2235 24C3.73147 22.492 3.9231 21.6453 4.09222 20.8983C4.19755 20.4331 4.28568 20.0446 4.81213 19.4063L6.42538 21.0195L16.798 11.3683L11.5235 6.09375ZM10.0224 14.2029L8.68879 12.8693L9.80633 11.7517L11.14 13.0854L10.0224 14.2029Z" fill="white"/>
<path d="M21.2703 1.62178C19.2974 -0.351191 16.1959 -0.523832 14.0249 1.10292L21.7897 8.86771C22.5068 7.91362 22.895 6.75867 22.8949 5.5439C22.895 4.06232 22.318 2.66939 21.2703 1.62178Z" fill="white"/>
</svg>
