<svg width="21" height="24" viewBox="0 0 21 24" fill="none" xmlns="http://www.w3.org/2000/svg">
<path d="M17.5426 0H2.75599C2.02528 0.000732786 1.32471 0.29133 0.80802 0.80802C0.29133 1.32471 0.000732786 2.02528 0 2.75599V23.0665C9.36686e-05 23.2352 0.0464338 23.4007 0.133982 23.5449C0.221531 23.6891 0.346936 23.8065 0.496563 23.8844C0.64619 23.9623 0.814312 23.9977 0.982649 23.9867C1.15099 23.9758 1.31309 23.9189 1.45135 23.8222L10.1493 17.7345L18.8472 23.8241C19.0024 23.9319 19.1869 23.9896 19.3759 23.9892C19.5243 23.9889 19.6704 23.9531 19.8022 23.8849C19.9518 23.807 20.0773 23.6894 20.1648 23.5451C20.2523 23.4009 20.2986 23.2353 20.2986 23.0665V2.75599C20.2978 2.02528 20.0072 1.32471 19.4905 0.80802C18.9739 0.29133 18.2733 0.000732786 17.5426 0ZM11.9946 5.53597H8.30396C8.05925 5.53597 7.82457 5.43876 7.65154 5.26573C7.4785 5.0927 7.38129 4.85801 7.38129 4.61331C7.38129 4.3686 7.4785 4.13392 7.65154 3.96089C7.82457 3.78786 8.05925 3.69065 8.30396 3.69065H11.9946C12.2393 3.69065 12.474 3.78786 12.647 3.96089C12.8201 4.13392 12.9173 4.3686 12.9173 4.61331C12.9173 4.85801 12.8201 5.0927 12.647 5.26573C12.474 5.43876 12.2393 5.53597 11.9946 5.53597Z" fill="white"/>
</svg>
